<?xml version="1.0" encoding="utf-8"?>
<!-- Generator: Adobe Illustrator 24.3.0, SVG Export Plug-In . SVG Version: 6.00 Build 0)  -->
<svg version="1.1" id="Calque_1" xmlns="http://www.w3.org/2000/svg" xmlns:xlink="http://www.w3.org/1999/xlink" x="0px" y="0px"
	 viewBox="0 0 362.2 103.6" style="enable-background:new 0 0 362.2 103.6;" xml:space="preserve">
<style type="text/css">
	.st0{fill:#424242;}
	.st1{opacity:0.94;fill:#D0170E;enable-background:new    ;}
	.st2{fill:#7DAE13;}
	.st3{fill:#658B12;}
	.st4{fill:#004674;}
	.st5{fill:#C6080A;}
	.st6{fill:#00538C;}
	.st7{fill:#FFFFFF;}
</style>
<path id="Tracé_1" class="st0" d="M155.3,16.7h-6.6l-2,3.5h6.3L155.3,16.7z"/>
<path id="Tracé_2" class="st0" d="M197.4,16.7h-6.6l-2,3.5h6.3L197.4,16.7z"/>
<path id="Tracé_3" class="st0" d="M131.3,54c-3.7,0-5.3-1.5-5.3-5.2V26.9h9.8v-4h-9.8v-9.6h-4.5v9.6H116v4h5.4v22.1
	c0,6.1,3.1,9.2,9.3,9.2c1.6,0,3.1-0.2,4.7-0.6l0.4-0.1v-4.3l-0.6,0.2C133.9,53.8,132.6,54,131.3,54z"/>
<path id="Tracé_4" class="st0" d="M192.5,22.3c-14.4,0-15.6,14.3-15.6,18.6c0,15,10.3,17.2,16.5,17.2c3.9,0.1,7.9-0.7,11.5-2.2
	l0.3-0.1v-4.7l-0.7,0.4c-3.4,1.6-7.1,2.4-10.8,2.3c-7,0-12.3-3.6-12.3-11.1h25.5h0.5v-0.5c0.1-0.6,0.1-1.2,0.1-1.8
	C207.6,36.2,206.5,22.3,192.5,22.3z M192.3,26.5c9.6,0,10.7,9.3,10.7,12.2h-21.6C181.9,33,184.1,26.5,192.3,26.5L192.3,26.5z"/>
<path id="Tracé_5" class="st0" d="M151.4,22.3c-14.4,0-15.6,14.3-15.6,18.6c0,15,10.3,17.2,16.5,17.2c3.9,0.1,7.9-0.7,11.5-2.2
	l0.3-0.1v-4.7l-0.7,0.4c-3.4,1.6-7.1,2.4-10.8,2.3c-7,0-12.3-3.6-12.3-11.1h25.5h0.5v-0.5c0.1-0.6,0.1-1.2,0.1-1.8
	C166.5,36.2,165.4,22.3,151.4,22.3z M151.2,26.5c9.6,0,10.7,9.3,10.7,12.2h-21.6C140.8,33,143,26.5,151.2,26.5L151.2,26.5z"/>
<rect id="Rectangle_1" x="169.4" y="9.8" class="st0" width="4.4" height="47.9"/>
<path id="Tracé_6" class="st0" d="M227.2,22.2c-7.5,0-16.3,3.1-16.3,18s8.9,18,16.3,18c3.4,0,6.8-0.6,10-1.8l0.3-0.1v-4.4l-0.7,0.3
	c-3,1.2-6.1,1.8-9.3,1.8c-8.4,0-12.3-4.3-12.3-13.7s3.9-13.7,12.3-13.7c3.2,0,6.3,0.6,9.3,1.8l0.6,0.2v-4.4l-0.3-0.1
	C234,22.9,230.6,22.3,227.2,22.2z"/>
<path id="Tracé_7" class="st0" d="M254.1,22.2c-6.1,0-16.3,2.3-16.3,18s10.2,18,16.3,18s16.3-2.3,16.3-18S260.2,22.2,254.1,22.2z
	 M266,40.2c0,9.4-3.8,13.8-11.9,13.8c-8,0-11.9-4.5-11.9-13.8s3.9-13.8,11.9-13.8C262.2,26.4,266,30.8,266,40.2L266,40.2z"/>
<path id="Tracé_8" class="st0" d="M310.7,22.2c-4.6,0.1-9.2,1.2-13.3,3.4c-2.5-2.4-5.9-3.6-9.4-3.4c-4.9,0.1-9.7,1.4-14,3.6
	l-0.3,0.1v31.7h4.4V28.6c3-1.2,6.1-1.9,9.4-1.9c6.1,0,8.9,2.7,8.9,8.5v22.5h4.4V35.1c0-2.1-0.3-4.1-1.1-6c3.3-1.5,6.9-2.4,10.6-2.4
	c6,0,8.8,2.7,8.8,8.5v22.5h4.4V35.1C323.7,26.8,319.1,22.2,310.7,22.2z"/>
<path id="Tracé_9" class="st0" d="M133,86.9c0,4-3.1,6.9-9,6.9c-2.7,0-5.4-0.6-7.8-1.8v-2.7c2.4,1.3,5,1.9,7.7,1.9
	c3.8,0,6.6-1.4,6.6-4.3c0-7.4-14.1-3.2-14.1-11.9c0-3.5,2.4-6.9,8.5-6.9c2.3,0,4.6,0.5,6.7,1.5V72c-2-1-4.2-1.5-6.5-1.5
	c-3.3,0-6.1,1.2-6.1,4.5C118.9,81,133,77.3,133,86.9z"/>
<path id="Tracé_10" class="st0" d="M154.9,78.5v7.6c0,6.8-6.9,7.6-10,7.6c-3.2,0-10.3-1-10.3-7.7c0-7.7,9.6-8,11.9-8
	c2,0,4,0.1,5.9,0.5c0-5.2-2.6-7.8-8.2-7.8c-2.4,0-4.8,0.4-7.1,1.1v-2.5c2.3-0.8,4.8-1.2,7.2-1.2C151.7,68.1,154.9,71.7,154.9,78.5z
	 M152.4,80.7c-2.1-0.3-4.2-0.5-6.3-0.5c-3.1,0-9.1,0.7-9.1,5.7c0,4.6,4.8,5.4,7.8,5.4c3,0,7.5-0.8,7.5-5.3V80.7z"/>
<path id="Tracé_11" class="st0" d="M157.5,68.5h2.5v24.8h-2.5V68.5z"/>
<path id="Tracé_12" class="st0" d="M182.7,77.2v16.2h-2.6V77.2c0-3.6-1.5-6.6-7.3-6.6c-2.7,0-5.4,0.6-7.9,1.6v21.1h-2.5V70.7
	c3.3-1.7,6.9-2.6,10.7-2.7C179.2,68,182.7,71.1,182.7,77.2z"/>
<path id="Tracé_13" class="st0" d="M197.1,90.8v2.4c-1.1,0.3-2.2,0.4-3.3,0.5c-3.1,0.5-6-1.7-6.5-4.8c-0.1-0.5-0.1-1,0-1.6V70.8h-4
	v-2.3h4v-7h2.6v7h7.2v2.3h-7.2v16.4c0,3.4,1.9,4.1,4.3,4.1C195.1,91.3,196.1,91.2,197.1,90.8z"/>
<path id="Tracé_14" class="st0" d="M197.8,77.6H208V80h-10.2V77.6z"/>
<path id="Tracé_15" class="st0" d="M234,81c0,0.4,0,0.9,0,1.3h-19.1c0,0.8,0.2,1.5,0.5,2.2c0.7,4.8,4.1,6.7,8.9,6.7
	c2.8,0.1,5.6-0.5,8.1-1.7v2.6c-2.6,1.1-5.5,1.6-8.3,1.6c-5.6,0-11.8-2.4-11.8-12.3c0-3.9,1.2-13.3,11.1-13.3
	C233.9,68.1,234,79.4,234,81z M214.8,80.1h16.5c0-1.2-0.3-9.6-8.2-9.6C217.8,70.5,215.1,74.1,214.8,80.1L214.8,80.1z"/>
<path id="Tracé_16" class="st0" d="M247.5,90.8v2.4c-1.1,0.3-2.2,0.4-3.3,0.5c-3.1,0.5-6-1.7-6.5-4.8c-0.1-0.5-0.1-1,0-1.6V70.8h-4
	v-2.3h4v-7h2.6v7h7.2v2.3h-7.2v16.4c0,3.4,1.9,4.1,4.2,4.1C245.5,91.3,246.5,91.2,247.5,90.8z"/>
<path id="Tracé_17" class="st0" d="M249.4,68.5h2.5v24.8h-2.5V68.5z"/>
<path id="Tracé_18" class="st0" d="M275.9,81c0,0.4,0,0.9-0.1,1.3h-19.1c0,0.8,0.2,1.5,0.5,2.2c0.7,4.8,4.1,6.7,8.9,6.7
	c2.8,0.1,5.6-0.5,8.1-1.7v2.6c-2.6,1.1-5.5,1.6-8.3,1.6c-5.6,0-11.8-2.4-11.8-12.3c0-3.9,1.2-13.3,11.1-13.3
	C275.9,68.1,275.9,79.4,275.9,81z M256.8,80.1h16.5c0-1.2-0.3-9.6-8.2-9.6C259.7,70.5,257.1,74.1,256.8,80.1L256.8,80.1z"/>
<path id="Tracé_19" class="st0" d="M298.7,77.2v16.2h-2.6V77.2c0-3.6-1.5-6.6-7.3-6.6c-2.7,0-5.4,0.6-7.9,1.6v21.1h-2.5V70.7
	c3.3-1.7,6.9-2.6,10.7-2.7C295.2,68,298.7,71.1,298.7,77.2z"/>
<path id="Tracé_20" class="st0" d="M321.4,77.2v16.2h-2.6V77.2c0-3.6-1.5-6.6-7.3-6.6c-2.7,0-5.4,0.6-7.9,1.6v21.1h-2.5V70.7
	c3.3-1.7,6.9-2.6,10.7-2.7C317.9,68,321.4,71.1,321.4,77.2z"/>
<path id="Tracé_21" class="st0" d="M345.6,81c0,0.4,0,0.9-0.1,1.3h-19.1c0,0.8,0.2,1.5,0.5,2.2c0.7,4.8,4.1,6.7,8.9,6.7
	c2.8,0.1,5.6-0.5,8.1-1.7v2.6c-2.6,1.1-5.5,1.6-8.3,1.6c-5.6,0-11.8-2.4-11.8-12.3c0-3.9,1.2-13.3,11.1-13.3
	C345.5,68.1,345.6,79.4,345.6,81z M326.5,80.1H343c0-1.2-0.3-9.6-8.2-9.6C329.4,70.5,326.7,74.1,326.5,80.1L326.5,80.1z"/>
<path id="Tracé_22" class="st0" d="M227,63.7h-4.5l-1.4,2.4h4.3L227,63.7z"/>
<rect id="Rectangle_2" x="157.5" y="63.7" class="st0" width="2.5" height="2.6"/>
<rect id="Rectangle_3" x="249.3" y="63.7" class="st0" width="2.5" height="2.6"/>
<path id="Tracé_23" class="st1" d="M76.5,33.2c5,14.4-0.3,30.4-12.8,39.2c-5.1,7.2-12.8,12.1-21.5,13.7l-0.2,0
	c-0.6,0.1-1.1,0.2-1.7,0.3l-0.4,0.1c-0.5,0.1-1.1,0.1-1.6,0.1c-0.1,0-0.3,0-0.4,0c-0.7,0-1.3,0.1-2,0.1h0c-0.1,0-0.2,0-0.3,0
	c-0.5,0-1.1,0-1.6,0c0,0,0.1,0,0,0c15.2,11.3,36.6,8.1,47.8-7.1C92.5,65.1,90.2,44.8,76.5,33.2L76.5,33.2z"/>
<path id="Tracé_24" class="st2" d="M56.2,25c7.5,0.4,14.6,3.3,20.2,8.1C70.4,15.3,50.9,5.8,33,11.9c-6.8,2.3-12.6,6.7-16.8,12.5
	C28.3,16,44.4,16.2,56.2,25L56.2,25z"/>
<path id="Tracé_25" class="st3" d="M70,52.6c-0.1,7.1-2.3,14-6.3,19.8c9.3-6.3,14.9-16.8,14.8-28c0-3.8-0.7-7.6-2.1-11.2
	c-5.7-4.9-12.8-7.7-20.2-8.1C64.9,31.5,70,41.7,70,52.6z"/>
<path id="Tracé_26" class="st4" d="M21.8,70.2c-6.1-17.9,3.4-37.3,21.3-43.5c3.6-1.2,7.3-1.8,11.1-1.8h0c0.7,0,1.3,0,2,0.1
	c-11.8-8.8-27.9-9-40-0.6C5.6,38.8,8.1,58.9,21.8,70.2z"/>
<path id="Tracé_27" class="st5" d="M56.2,25c-0.7,0-1.3-0.1-2-0.1c-19,0-34.3,15.3-34.4,34.3c0,3.8,0.7,7.6,2,11.2
	c2.3,6.5,6.5,12.2,12,16.3h0c0.5,0,1,0,1.6,0c0.1,0,0.2,0,0.4,0c0.7,0,1.3,0,2-0.1c0.1,0,0.3,0,0.4,0c0.5,0,1.1-0.1,1.6-0.1
	c0.1,0,0.3,0,0.4-0.1c0.6-0.1,1.1-0.2,1.7-0.3l0.2,0c8.6-1.6,16.3-6.6,21.4-13.7c0,0,0,0,0-0.1C74.4,57.2,71.2,36.1,56.2,25L56.2,25
	z"/>
<path id="Tracé_28" class="st6" d="M21.8,70.3L21.8,70.3C8.4,58.7,5.9,38.8,16.2,24.4C7,30.8,1.5,41.3,1.6,52.5
	c-0.1,14.3,8.9,27.1,22.5,31.8v-8.9C23.2,73.8,22.4,72.1,21.8,70.3z"/>
<path id="Tracé_29" class="st7" d="M51.5,30.4l-27.5,16v38c2,0.8,10.9,3.5,13,4.2V54l14.8-8.6v47.9c4.3,0.2,8.5-0.3,12.6-1.6V38
	L51.5,30.4z"/>
<path id="Tracé_30" class="st7" d="M33.8,86.7"/>
</svg>
